<svg xmlns="http://www.w3.org/2000/svg" width="208" height="79" fill="none" xmlns:v="https://vecta.io/nano"><path d="M61.834 55.21c-1.663.849-16.112 3.756-27.09.779-8.201-2.23-19.139-8.596-22.775-10.794a1.28 1.28 0 0 1-.332-1.898l13.49-17.094c.572-.725 1.701-.655 2.194.126 2.185 3.465 7.715 11.68 14.302 17.269 8.836 7.502 15.976 9.608 20.26 10.096.53.06 1.614.667-.049 1.516zm-3.894-5.954c-1.368-.301-11.123-5.501-16.063-12.455-3.557-5.014-6.756-13.469-7.929-16.76-.261-.732.187-1.512.946-1.678l15.133-3.296c.902-.197 1.732.576 1.622 1.493-.392 3.291-.981 10.276.116 16.34 1.544 8.556 4.677 13.177 6.926 15.501.278.287.617 1.156-.751.855zm1.545-3.956c-.626-.737-3.811-7.669-3.62-13.553.133-3.996 1.718-9.539 2.511-12.087.231-.742 1.061-1.097 1.765-.769l8.74 4.071c.837.39 1.03 1.51.396 2.181-1.689 1.789-4.575 5.106-6.352 8.592-2.727 5.345-2.937 9.192-2.672 11.409.033.274-.144.893-.77.156zm3.623-2.176c-.026-.559.966-4.865 3.136-7.495 1.401-1.695 3.895-3.566 5.226-4.51.475-.337 1.13-.167 1.398.35l2.301 4.447c.318.615-.082 1.37-.765 1.486-1.445.245-3.728.74-5.626 1.639-3.141 1.486-4.599 3.175-5.262 4.285-.082.137-.382.358-.408-.201z" fill="#00d6bc"/><g clip-path="url(#A)" fill="#334155"><path d="M94.03 49.716c-1.978 0-3.747-.488-5.308-1.463a10.6 10.6 0 0 1-3.636-3.887c-.892-1.644-1.337-3.455-1.337-5.433 0-1.95.474-3.733 1.421-5.349.975-1.644 2.285-2.939 3.928-3.887 1.644-.975 3.497-1.463 5.558-1.463s3.914.474 5.559 1.421a10.19 10.19 0 0 1 3.886 3.803c.975 1.616 1.463 3.441 1.463 5.475v10.281h-3.928v-7.648l1.42-1.087c0 1.727-.39 3.288-1.17 4.681-.752 1.393-1.811 2.508-3.176 3.343-1.337.808-2.898 1.212-4.681 1.212zm.627-3.928c1.282 0 2.438-.306 3.469-.919s1.839-1.435 2.424-2.466c.585-1.059.878-2.201.878-3.427 0-1.254-.293-2.396-.878-3.427s-1.393-1.853-2.424-2.466c-1.031-.641-2.187-.961-3.469-.961s-2.438.32-3.469.961c-1.003.613-1.811 1.435-2.424 2.466-.585 1.031-.878 2.173-.878 3.427a6.97 6.97 0 0 0 .878 3.427c.613 1.031 1.421 1.853 2.424 2.466 1.031.613 2.187.919 3.469.919zm15.999-26.455h4.137v29.881h-4.137V19.333zm18.776 30.341c-2.062 0-3.915-.46-5.558-1.379a10.5 10.5 0 0 1-3.887-3.845c-.947-1.644-1.421-3.511-1.421-5.6 0-1.95.432-3.733 1.295-5.349.864-1.644 2.076-2.939 3.636-3.887 1.561-.975 3.372-1.463 5.433-1.463s3.831.46 5.308 1.379a9 9 0 0 1 3.469 3.678c.836 1.532 1.253 3.246 1.253 5.14v1.672h-17.176l.752-1.672c-.083 1.449.153 2.744.711 3.887a6.82 6.82 0 0 0 2.424 2.758c1.058.669 2.298 1.003 3.719 1.003 1.282 0 2.438-.279 3.469-.836 1.059-.557 1.894-1.393 2.507-2.508l3.177 1.63c-.892 1.755-2.132 3.093-3.72 4.012s-3.385 1.379-5.391 1.379zm-6.687-12.329h12.078c-.056-1.087-.348-2.048-.878-2.884a4.97 4.97 0 0 0-2.089-1.922c-.864-.446-1.853-.669-2.967-.669-1.143 0-2.16.237-3.051.71a5.66 5.66 0 0 0-2.09 1.964c-.501.836-.836 1.769-1.003 2.8zm28.72 21.774c-2.202 0-4.18-.474-5.935-1.421s-3.107-2.326-4.054-4.137l3.469-1.881a6.44 6.44 0 0 0 2.549 2.633c1.115.669 2.41 1.003 3.887 1.003 1.449 0 2.702-.334 3.761-1.003 1.087-.641 1.937-1.56 2.55-2.758.612-1.17.919-2.549.919-4.137v-4.305l1.045-.961c0 1.226-.335 2.41-1.003 3.552-.641 1.115-1.588 2.034-2.842 2.758-1.226.697-2.717 1.045-4.472 1.045-1.922 0-3.678-.46-5.266-1.379a10.92 10.92 0 0 1-3.761-3.803c-.919-1.616-1.379-3.427-1.379-5.433 0-1.95.474-3.733 1.421-5.349a10.82 10.82 0 0 1 3.928-3.845c1.644-.975 3.497-1.463 5.559-1.463s3.914.474 5.558 1.421a10.19 10.19 0 0 1 3.887 3.803c.975 1.616 1.462 3.441 1.462 5.475v8.442c0 2.368-.487 4.43-1.462 6.185-.975 1.783-2.313 3.148-4.012 4.096-1.7.975-3.636 1.463-5.809 1.463zm.334-13.499c1.254 0 2.396-.293 3.427-.878 1.031-.613 1.839-1.435 2.424-2.466.613-1.059.919-2.201.919-3.427 0-1.254-.306-2.382-.919-3.385a6.33 6.33 0 0 0-2.424-2.424c-1.031-.585-2.173-.878-3.427-.878s-2.396.293-3.427.878c-1.003.585-1.811 1.393-2.424 2.424-.613 1.003-.919 2.131-.919 3.385 0 1.226.306 2.368.919 3.427.613 1.031 1.421 1.853 2.424 2.466 1.031.585 2.173.878 3.427.878zm19.342 3.595h-4.138V37.011c0-1.672.307-3.162.92-4.472.641-1.309 1.56-2.34 2.758-3.093 1.226-.752 2.73-1.128 4.514-1.128a8.65 8.65 0 0 1 1.922.209c.641.111 1.226.293 1.755.543v4.096a5.58 5.58 0 0 0-1.63-.669 6.88 6.88 0 0 0-1.671-.209c-1.365 0-2.452.446-3.26 1.337-.78.864-1.17 2.048-1.17 3.552v12.036zm18.113.501c-1.978 0-3.747-.488-5.307-1.463-1.533-.975-2.745-2.271-3.636-3.887-.892-1.644-1.337-3.455-1.337-5.433 0-1.95.473-3.733 1.42-5.349a10.73 10.73 0 0 1 3.929-3.887c1.644-.975 3.497-1.463 5.558-1.463s3.915.474 5.559 1.421a10.19 10.19 0 0 1 3.886 3.803c.975 1.616 1.463 3.441 1.463 5.475v10.281h-3.928v-7.648l1.42-1.087c0 1.727-.39 3.288-1.17 4.681-.752 1.393-1.811 2.508-3.176 3.343-1.337.808-2.898 1.212-4.681 1.212zm.627-3.928c1.282 0 2.438-.306 3.469-.919s1.839-1.435 2.424-2.466c.585-1.059.878-2.201.878-3.427 0-1.254-.293-2.396-.878-3.427s-1.393-1.853-2.424-2.466c-1.031-.641-2.187-.961-3.469-.961s-2.438.32-3.468.961c-1.003.613-1.811 1.435-2.424 2.466-.586 1.031-.878 2.173-.878 3.427 0 1.226.292 2.368.878 3.427.613 1.031 1.421 1.853 2.424 2.466 1.03.613 2.187.919 3.468.919z"/><path d="M121.816 36.692h14.313v1.523h-14.313z"/></g><defs><clipPath id="A"><path fill="#fff" transform="translate(80.095 19.333)" d="M0 0h127.905v39.894H0z"/></clipPath></defs></svg>